<svg xmlns="http://www.w3.org/2000/svg" xmlns:xlink="http://www.w3.org/1999/xlink" xmlns:lucid="lucid" width="4688" height="2252"><g transform="translate(-1755.0000499999999 2420)" lucid:page-tab-id="0_0"><path d="M1500-2500h5000V0H1500z" fill="#fff"/><path d="M3531.53-545a6 6 0 0 1 6-6H3974a6 6 0 0 1 6 6v368a6 6 0 0 1-6 6h-436.47a6 6 0 0 1-6-6z" stroke="#3a414a" stroke-width="6" fill="#edf5ff"/><path d="M3531.53-454.34H3980" stroke="#3a414a" stroke-width="6" fill="none"/><use xlink:href="#a" transform="matrix(1,0,0,1,3539.5254237288136,-543) translate(126.75390625 64.75130208333334)"/><path d="M1800-2314a6 6 0 0 1 6-6h348a6 6 0 0 1 6 6v246a6 6 0 0 1-6 6h-348a6 6 0 0 1-6-6z" stroke="#3a414a" stroke-width="6" fill="#edf5ff"/><path d="M1800-2223.34h360" stroke="#3a414a" stroke-width="6" fill="none"/><use xlink:href="#b" transform="matrix(1,0,0,1,1808,-2312) translate(46.38151041666666 64.75130208333334)"/><path d="M2720-1894a6 6 0 0 1 6-6h428a6 6 0 0 1 6 6v197a6 6 0 0 1-6 6h-428a6 6 0 0 1-6-6z" stroke="#3a414a" stroke-width="6" fill="#edf5ff"/><path d="M2720-1803.34h440" stroke="#3a414a" stroke-width="6" fill="none"/><use xlink:href="#c" transform="matrix(1,0,0,1,2728,-1892) translate(20.610026041666686 64.75130208333334)"/><path d="M3020-1574a6 6 0 0 1 6-6h348a6 6 0 0 1 6 6v286a6 6 0 0 1-6 6h-348a6 6 0 0 1-6-6z" stroke="#3a414a" stroke-width="6" fill="#edf5ff"/><path d="M3020-1483.34h360" stroke="#3a414a" stroke-width="6" fill="none"/><use xlink:href="#d" transform="matrix(1,0,0,1,3028,-1572) translate(69.68880208333331 64.75130208333334)"/><path d="M3680-986v-139a6 6 0 0 0-6-6h-468a6 6 0 0 1-6-6v-139" stroke="#3a414a" stroke-width="6" fill="none"/><path d="M3682.97-983h-5.94v-3.08h5.94zM3202.97-1275.92h-5.94v-3.08h5.94z" stroke="#3a414a" stroke-width=".05" fill="#3a414a"/><use xlink:href="#e" transform="matrix(1,0,0,1,3688,-1077.3983875000001) translate(0 77.5)"/><use xlink:href="#f" transform="matrix(1,0,0,1,3151.921875,-1281.3984874999994) translate(0 77.5)"/><path d="M2492.2-1114a6 6 0 0 1 6-6h348a6 6 0 0 1 6 6v286a6 6 0 0 1-6 6h-348a6 6 0 0 1-6-6z" stroke="#3a414a" stroke-width="6" fill="#edf5ff"/><path d="M2492.2-1023.34h360" stroke="#3a414a" stroke-width="6" fill="none"/><use xlink:href="#g" transform="matrix(1,0,0,1,2500.2033898305085,-1112) translate(67.55664062499999 64.75130208333334)"/><path d="M5300-1914a6 6 0 0 1 6-6h1128a6 6 0 0 1 6 6v286a6 6 0 0 1-6 6H5306a6 6 0 0 1-6-6z" stroke="#3a414a" stroke-width="6" fill="#edf5ff"/><path d="M5300-1823.34h1140" stroke="#3a414a" stroke-width="6" fill="none"/><use xlink:href="#h" transform="matrix(1,0,0,1,5308,-1912) translate(133.30533854166674 64.75130208333334)"/><path d="M5742-1616v339a6 6 0 0 1-6 6h-790" stroke="#3a414a" stroke-width="6" fill="none"/><path d="M5745-1615.92h-5.96v-3.08h5.95zM4946.08-1268.03H4943v-5.94h3.08z" stroke="#3a414a" stroke-width=".05" fill="#3a414a"/><use xlink:href="#i" transform="matrix(1,0,0,1,5689.284943198176,-1621.3984761535023) translate(0 77.5)"/><use xlink:href="#j" transform="matrix(1,0,0,1,4940.753856249999,-1267) translate(0 77.5)"/><path d="M4420-1414a6 6 0 0 1 6-6h508a6 6 0 0 1 6 6v286a6 6 0 0 1-6 6h-508a6 6 0 0 1-6-6z" stroke="#3a414a" stroke-width="6" fill="#edf5ff"/><path d="M4420-1323.34h520" stroke="#3a414a" stroke-width="6" fill="none"/><use xlink:href="#k" transform="matrix(1,0,0,1,4428,-1412) translate(79.1484375 64.75130208333334)"/><path d="M3554.27-1574a6 6 0 0 1 6-6h348a6 6 0 0 1 6 6v286a6 6 0 0 1-6 6h-348a6 6 0 0 1-6-6z" stroke="#3a414a" stroke-width="6" fill="#edf5ff"/><path d="M3554.27-1483.34h360" stroke="#3a414a" stroke-width="6" fill="none"/><use xlink:href="#l" transform="matrix(1,0,0,1,3562.2676726758964,-1572) translate(95.50260416666666 64.75130208333334)"/><path d="M3166-1795.5h562.27a6 6 0 0 1 6 6v203.5" stroke="#3a414a" stroke-width="6" fill="none"/><path d="M3166.08-1792.53H3163v-5.94h3.08zM3737.24-1583h-5.95v-3.08h5.94z" stroke="#3a414a" stroke-width=".05" fill="#3a414a"/><use xlink:href="#f" transform="matrix(1,0,0,1,3160.9608875000004,-1791.5) translate(0 77.5)"/><use xlink:href="#e" transform="matrix(1,0,0,1,3742.2676726758964,-1677.3983874999988) translate(0 77.5)"/><path d="M4700-614a6 6 0 0 1 6-6h708a6 6 0 0 1 6 6v286a6 6 0 0 1-6 6h-708a6 6 0 0 1-6-6z" stroke="#3a414a" stroke-width="6" fill="#edf5ff"/><path d="M4700-523.34h720" stroke="#3a414a" stroke-width="6" fill="none"/><use xlink:href="#m" transform="matrix(1,0,0,1,4708,-612) translate(79.490234375 64.75130208333334)"/><path d="M2480-534a6 6 0 0 1 6-6h372.4a6 6 0 0 1 6 6v346a6 6 0 0 1-6 6H2486a6 6 0 0 1-6-6z" stroke="#3a414a" stroke-width="6" fill="#edf5ff"/><path d="M2480-443.34h384.4" stroke="#3a414a" stroke-width="6" fill="none"/><use xlink:href="#n" transform="matrix(1,0,0,1,2488,-532) translate(66.05924479166666 64.75130208333334)"/><path d="M3500-974a6 6 0 0 1 6-6h348a6 6 0 0 1 6 6v286a6 6 0 0 1-6 6h-348a6 6 0 0 1-6-6z" stroke="#3a414a" stroke-width="6" fill="#edf5ff"/><path d="M3500-883.34h360" stroke="#3a414a" stroke-width="6" fill="none"/><use xlink:href="#o" transform="matrix(1,0,0,1,3508,-972) translate(77.35481770833331 64.75130208333334)"/><path d="M5229.87-1768.03H3845.3l-.58.05-.45.1-.44.2-.4.24-.37.3-.3.37-.25.4-.17.44-.1.46-.06.6V-1586h-5.95v-179.12l.1-1.3.33-1.36.54-1.3.73-1.2.9-1.07 1.1-.92 1.2-.74 1.3-.54 1.36-.33 1.28-.1h1384.8zm64.13 0h-24.05v-5.94H5294z" stroke="#3a414a" stroke-width=".05" fill="#3a414a"/><path d="M5297-1768.03h-3.08v-5.94h3.08z" fill="#3a414a"/><path stroke="#3a414a" stroke-width=".05" fill="#3a414a"/><path d="M3842.17-1583h-5.95v-3.08h5.95z" fill="#3a414a"/><path stroke="#3a414a" stroke-width=".05" fill="#3a414a"/><use xlink:href="#f" transform="matrix(1,0,0,1,5229.869790302513,-1819.3984375) translate(0 77.5)"/><use xlink:href="#e" transform="matrix(1,0,0,1,3847.1967710223757,-1677.398417652041) translate(0 77.5)"/><path d="M4190-1834a6 6 0 0 1 6-6h228a6 6 0 0 1 6 6v23.5a6 6 0 0 1-6 6h-228a6 6 0 0 1-6-6z" fill="none"/><use xlink:href="#p" transform="matrix(1,0,0,1,4190,-1840) translate(-15.48828125 77.5)"/><path d="M3386-1431h162.27" stroke="#3a414a" stroke-width="6" fill="none"/><path d="M3386.08-1428.03H3383v-5.94h3.08zM3551.27-1428.03h-3.08v-5.94h3.07z" stroke="#3a414a" stroke-width=".05" fill="#3a414a"/><use xlink:href="#f" transform="matrix(1,0,0,1,3380.9608875000004,-1427) translate(0 77.5)"/><use xlink:href="#q" transform="matrix(1,0,0,1,3516.7627226758964,-1531.796875) translate(0 77.5)"/><use xlink:href="#r" transform="matrix(1,0,0,1,3516.7627226758964,-1531.796875) translate(36.01 77.5)"/><path d="M3014-1502.42h-418a6 6 0 0 1-6-6V-2185a6 6 0 0 0-6-6h-418" stroke="#3a414a" stroke-width="6" fill="none"/><path d="M3017-1499.44h-3.08v-5.95h3.08zM2166.08-2188.03H2163v-5.94h3.08z" stroke="#3a414a" stroke-width=".05" fill="#3a414a"/><use xlink:href="#q" transform="matrix(1,0,0,1,2982.495025027874,-1603.2171539937717) translate(0 77.5)"/><use xlink:href="#s" transform="matrix(1,0,0,1,2982.495025027874,-1603.2171539937717) translate(36.01 77.5)"/><use xlink:href="#f" transform="matrix(1,0,0,1,2160.9608875000004,-2187) translate(0 77.5)"/><path d="M3784.15-2014v428" stroke="#3a414a" stroke-width="6" fill="none"/><path d="M3787.13-2013.92h-5.95v-3.08h5.95zM3787.13-1583h-5.95v-3.08h5.95z" stroke="#3a414a" stroke-width=".05" fill="#3a414a"/><use xlink:href="#f" transform="matrix(1,0,0,1,3736.0762143523007,-2019.3984710059567) translate(0 77.5)"/><use xlink:href="#e" transform="matrix(1,0,0,1,3792.1543393522998,-1677.3984018352485) translate(0 77.5)"/><path d="M2940-1933.65V-2134a6 6 0 0 1 6-6h408" stroke="#3a414a" stroke-width="6" fill="none"/><path d="M2940-1909l-12.5-21.65h25z" stroke="#3a414a" stroke-width="6" fill="#fff"/><path d="M3357-2137.03h-3.08v-5.94h3.08z" stroke="#3a414a" stroke-width=".05" fill="#3a414a"/><path d="M2829.34-1933.65V-2354a6 6 0 0 1 6-6h2874.84a6 6 0 0 1 6 6v428" stroke="#3a414a" stroke-width="6" fill="none"/><path d="M2829.34-1909l-12.5-21.65h25z" stroke="#3a414a" stroke-width="6" fill="#fff"/><path d="M5719.15-1923h-5.95v-3.08h5.95z" stroke="#3a414a" stroke-width=".05" fill="#3a414a"/><path d="M3056.53-1276v299a6 6 0 0 1-6 6H2858.2" stroke="#3a414a" stroke-width="6" fill="none"/><path d="M3059.5-1275.92h-5.94v-3.08h5.95zM2858.28-968.02h-3.08V-974h3.08z" stroke="#3a414a" stroke-width=".05" fill="#3a414a"/><use xlink:href="#e" transform="matrix(1,0,0,1,3015.996150815351,-1281.3984462744866) translate(0 77.5)"/><use xlink:href="#f" transform="matrix(1,0,0,1,2853.164277330509,-967) translate(0 77.5)"/><path d="M3360-2254a6 6 0 0 1 6-6h1248a6 6 0 0 1 6 6v228a6 6 0 0 1-6 6H3366a6 6 0 0 1-6-6z" stroke="#3a414a" stroke-width="6" fill="#edf5ff"/><path d="M3360-2163.34h1260" stroke="#3a414a" stroke-width="6" fill="none"/><use xlink:href="#t" transform="matrix(1,0,0,1,3368,-2252) translate(36.42057291666674 64.75130208333334)"/><path d="M3014-1355.98h-728" stroke="#3a414a" stroke-width="6" fill="none"/><path d="M3017-1353h-3.08v-5.96h3.08zM2286.08-1353H2283v-5.96h3.08z" stroke="#3a414a" stroke-width=".05" fill="#3a414a"/><use xlink:href="#q" transform="matrix(1,0,0,1,2982.4950762290873,-1456.7816844015897) translate(0 77.5)"/><use xlink:href="#s" transform="matrix(1,0,0,1,2982.4950762290873,-1456.7816844015897) translate(36.01 77.5)"/><use xlink:href="#f" transform="matrix(1,0,0,1,2280.9609029965727,-1351.9848094015897) translate(0 77.5)"/><path d="M3160-2414a6 6 0 0 1 6-6h228a6 6 0 0 1 6 6v48a6 6 0 0 1-6 6h-228a6 6 0 0 1-6-6z" fill="none"/><use xlink:href="#u" transform="matrix(1,0,0,1,3160,-2420) translate(-30.29296875 77.5)"/><path d="M3060-2189a.5.5 0 0 1 .5-.5h239a.5.5 0 0 1 .5.5.5.5 0 0 1-.5.5h-239a.5.5 0 0 1-.5-.5z" fill="none"/><use xlink:href="#u" transform="matrix(1,0,0,1,3060,-2189.5) translate(-30.29296875 77.5)"/><path d="M1794-2191h-30a6 6 0 0 0-6 6v1295.58a6 6 0 0 0 6 6h684.96a.24.24 0 0 1 .24.24.24.24 0 0 0 .24.24h36.76" stroke="#3a414a" stroke-width="6" fill="none"/><path d="M1797-2188.03h-3.08v-5.94h3.08zM2489.2-879.97h-3.07v-5.95h3.07z" stroke="#3a414a" stroke-width=".05" fill="#3a414a"/><use xlink:href="#f" transform="matrix(1,0,0,1,1758.9609874999996,-2291.796875) translate(0 77.5)"/><use xlink:href="#v" transform="matrix(1,0,0,1,2418.698470620179,-983.7384231762619) translate(0 77.5)"/><use xlink:href="#s" transform="matrix(1,0,0,1,2418.698470620179,-983.7384231762619) translate(72.01 77.5)"/><path d="M1920-1543.3a6 6 0 0 1 6-6h348a6 6 0 0 1 6 6v286a6 6 0 0 1-6 6h-348a6 6 0 0 1-6-6z" stroke="#3a414a" stroke-width="6" fill="#edf5ff"/><path d="M1920-1452.64h360" stroke="#3a414a" stroke-width="6" fill="none"/><use xlink:href="#w" transform="matrix(1,0,0,1,1928,-1541.3050060408416) translate(96.96744791666666 64.75130208333334)"/><path d="M1914-1400.3h-31a6 6 0 0 0-6 6v373.1a6 6 0 0 0 6 6h603.2" stroke="#3a414a" stroke-width="6" fill="none"/><path d="M1917-1397.33h-3.08v-5.95h3.08zM2489.2-1012.23h-3.07v-5.95h3.07z" stroke="#3a414a" stroke-width=".05" fill="#3a414a"/><use xlink:href="#f" transform="matrix(1,0,0,1,1878.9609874999999,-1501.1018810408416) translate(0 77.5)"/><use xlink:href="#q" transform="matrix(1,0,0,1,2454.6984243739194,-1116.0027196201845) translate(0 77.5)"/><use xlink:href="#s" transform="matrix(1,0,0,1,2454.6984243739194,-1116.0027196201845) translate(36.01 77.5)"/><path d="M4626-2140h48a6 6 0 0 1 6 6v708" stroke="#3a414a" stroke-width="6" fill="none"/><path d="M4626.08-2137.03H4623v-5.94h3.08zM4682.98-1423h-5.95v-3.08h5.95z" stroke="#3a414a" stroke-width=".05" fill="#3a414a"/><use xlink:href="#f" transform="matrix(1,0,0,1,4620.960887499999,-2136) translate(0 77.5)"/><use xlink:href="#x" transform="matrix(1,0,0,1,4688,-1517.516445620782) translate(36.01 77.5)"/><path d="M5060-626v-383.2a6 6 0 0 0-6-6H3881.05a6 6 0 0 1-6-6V-1276" stroke="#3a414a" stroke-width="6" fill="none"/><path d="M5062.98-623h-5.95v-3.08h5.95zM3878.03-1275.92h-5.95v-3.08h5.95z" stroke="#3a414a" stroke-width=".05" fill="#3a414a"/><use xlink:href="#f" transform="matrix(1,0,0,1,5068,-717.3983875) translate(0 77.5)"/><use xlink:href="#e" transform="matrix(1,0,0,1,3834.512458516212,-1281.3985279551255) translate(0 77.5)"/><path d="M2672.2-816v270" stroke="#3a414a" stroke-width="6" fill="none"/><path d="M2675.18-815.92h-5.95V-819h5.95zM2675.18-543h-5.95v-3.08h5.95z" stroke="#3a414a" stroke-width=".05" fill="#3a414a"/><use xlink:href="#f" transform="matrix(1,0,0,1,2624.1252648305085,-821.3984874999999) translate(0 77.5)"/><use xlink:href="#e" transform="matrix(1,0,0,1,2680.2033898305085,-637.3983875000008) translate(0 77.5)"/><path d="M2870.4-361h655.13" stroke="#000" stroke-width="6" fill="none"/><path d="M2870.48-358.02h-3.07v-5.96h3.08zM3528.53-358.02h-3.08v-5.96h3.08z" stroke="#000" stroke-width=".05"/><use xlink:href="#f" transform="matrix(1,0,0,1,2865.3676674999997,-357) translate(0 77.5)"/><g><use xlink:href="#q" transform="matrix(1,0,0,1,3494.0204737288136,-461.796875) translate(0 77.5)"/><use xlink:href="#s" transform="matrix(1,0,0,1,3494.0204737288136,-461.796875) translate(36.01 77.5)"/></g><path d="M6427.78-1923.5v-37.72a.28.28 0 0 0-.28-.28.28.28 0 0 1-.28-.28v-37.72" stroke="#000" fill="none"/><path d="M6428.26-1923h-.95v-.5h.96z" stroke="#000" stroke-width=".05"/><path d="M6427.22-1999.5v-.5" stroke="#000" fill="none"/><defs><path d="M75-1237v-253h1217v253H837V0H531v-1237H75" id="y"/><path d="M628 22C291 22 81-210 81-554c0-346 210-578 547-578 336 0 547 232 547 578 0 344-211 576-547 576zm0-236c160 0 242-146 242-341 0-197-82-341-242-341S387-753 387-555c0 195 81 341 241 341" id="z"/><path d="M128 418v-1536h295v188h14c41-89 129-202 319-202 248 0 453 193 453 575 0 372-197 576-455 576-183 0-275-108-317-198h-9v597H128zm534-640c156 0 240-139 240-336 0-196-83-334-240-334-154 0-241 131-241 334 0 202 88 336 241 336" id="A"/><path d="M128 0v-1118h300V0H128zm150-1264c-91 0-165-68-165-154 0-85 74-154 165-154 90 0 165 69 165 154 0 86-75 154-165 154" id="B"/><path d="M628 22C291 22 81-210 81-554c0-346 210-578 547-578 265 0 455 142 497 372l-279 52c-25-116-99-188-215-188-160 0-244 139-244 341 0 200 84 341 244 341 116 0 193-74 217-195l279 51C1085-123 896 22 628 22" id="C"/><g id="a"><use transform="matrix(0.032552083333333336,0,0,0.032552083333333336,0,0)" xlink:href="#y"/><use transform="matrix(0.032552083333333336,0,0,0.032552083333333336,39.290364583333336,0)" xlink:href="#z"/><use transform="matrix(0.032552083333333336,0,0,0.032552083333333336,80.17578125,0)" xlink:href="#A"/><use transform="matrix(0.032552083333333336,0,0,0.032552083333333336,122.20052083333334,0)" xlink:href="#B"/><use transform="matrix(0.032552083333333336,0,0,0.032552083333333336,140.26692708333334,0)" xlink:href="#C"/></g><path d="M49 0l509-1490h400L1480 0h-339l-115-346H497L386 0H49zm524-585h374c-75-213-124-402-192-666-66 268-110 453-182 666" id="D"/><path d="M428-647V0H128v-1118h283l4 231c63-156 176-245 348-245 232 0 384 159 384 421V0H847v-659c0-139-76-222-202-222-128 0-217 86-217 234" id="E"/><path d="M572 22C302 22 117-98 78-306l279-48c29 105 101 156 224 156 114 0 185-48 185-115 0-118-228-130-337-155-215-49-322-150-322-317 0-215 187-347 470-347 265 0 424 116 466 298l-266 47c-24-76-87-130-196-130-98 0-174 46-174 113 0 56 38 95 144 117l201 40c216 44 320 143 320 302 0 220-207 367-500 367" id="F"/><path d="M361 0L31-1118h315c68 295 127 523 188 845 63-317 128-551 199-845h276c71 296 131 525 196 846 57-321 119-552 186-846h319L1378 0h-305c-73-261-148-486-204-771C813-484 740-261 666 0H361" id="G"/><path d="M633 22C291 22 81-200 81-553c0-345 210-579 537-579 292 0 525 185 525 567v84H378c7 183 109 277 260 277 105 0 184-46 216-132l272 51C1071-99 893 22 633 22zM380-669h474c-15-146-94-237-233-237-143 0-229 99-241 237" id="H"/><path d="M128 0v-1118h290v195h12c54-169 184-238 367-200v268c-27-8-86-15-130-15-138 0-239 95-239 234V0H128" id="I"/><g id="b"><use transform="matrix(0.032552083333333336,0,0,0.032552083333333336,0,0)" xlink:href="#D"/><use transform="matrix(0.032552083333333336,0,0,0.032552083333333336,49.77213541666667,0)" xlink:href="#E"/><use transform="matrix(0.032552083333333336,0,0,0.032552083333333336,91.27604166666667,0)" xlink:href="#F"/><use transform="matrix(0.032552083333333336,0,0,0.032552083333333336,128.61328125,0)" xlink:href="#G"/><use transform="matrix(0.032552083333333336,0,0,0.032552083333333336,184.375,0)" xlink:href="#H"/><use transform="matrix(0.032552083333333336,0,0,0.032552083333333336,224.08854166666669,0)" xlink:href="#I"/></g><path d="M135 0v-1490h340l471 754c59 97 122 210 187 365-32-387-14-721-19-1119h312V0h-341C855-382 627-689 427-1113c32 420 16 695 20 1113H135" id="J"/><path d="M683-1118v229H474v562c0 71 29 104 102 104 23 0 73-7 95-13l43 225C647 9 580 16 520 16 296 16 174-96 174-301v-588H20v-229h154v-266h300v266h209" id="K"/><path d="M750-1118v229H516V0H217v-889H20v-229h197v-86c0-238 156-356 363-356 94 0 178 20 215 31l-54 226c-25-7-61-15-100-15-123-3-131 84-125 200h234" id="L"/><path d="M440 22C227 22 68-92 68-313c0-250 202-322 422-343 195-21 271-24 271-105 0-95-63-149-175-149-116 0-187 57-211 129l-275-46c57-194 237-305 487-305 240 0 474 108 474 379V0H777v-155h-10C713-51 605 22 440 22zm85-211c140 0 238-93 238-211v-121c-37 26-156 42-222 51-111 16-185 59-185 149 0 87 70 132 169 132" id="M"/><g id="c"><use transform="matrix(0.032552083333333336,0,0,0.032552083333333336,0,0)" xlink:href="#J"/><use transform="matrix(0.032552083333333336,0,0,0.032552083333333336,50.813802083333336,0)" xlink:href="#z"/><use transform="matrix(0.032552083333333336,0,0,0.032552083333333336,91.69921875,0)" xlink:href="#K"/><use transform="matrix(0.032552083333333336,0,0,0.032552083333333336,116.11328125,0)" xlink:href="#B"/><use transform="matrix(0.032552083333333336,0,0,0.032552083333333336,134.1796875,0)" xlink:href="#L"/><use transform="matrix(0.032552083333333336,0,0,0.032552083333333336,161.26302083333331,0)" xlink:href="#B"/><use transform="matrix(0.032552083333333336,0,0,0.032552083333333336,179.32942708333331,0)" xlink:href="#C"/><use transform="matrix(0.032552083333333336,0,0,0.032552083333333336,219.20572916666663,0)" xlink:href="#M"/><use transform="matrix(0.032552083333333336,0,0,0.032552083333333336,257.91015624999994,0)" xlink:href="#K"/><use transform="matrix(0.032552083333333336,0,0,0.032552083333333336,282.32421874999994,0)" xlink:href="#B"/><use transform="matrix(0.032552083333333336,0,0,0.032552083333333336,300.39062499999994,0)" xlink:href="#z"/><use transform="matrix(0.032552083333333336,0,0,0.032552083333333336,341.27604166666663,0)" xlink:href="#E"/></g><path d="M135 0v-1490h581c339 0 533 210 533 503 0 295-197 500-540 500H440V0H135zm305-733h220c186 0 274-104 274-254s-88-251-275-251H440v505" id="N"/><path d="M428-1490V0H128v-1490h300" id="O"/><path d="M120 396l69-226c123 42 245 23 254-107l8-60L31-1118h319c87 288 199 559 259 872 72-308 185-583 277-872h315L726 132c-68 181-186 294-410 294-79 0-153-13-196-30" id="P"/><g id="d"><use transform="matrix(0.032552083333333336,0,0,0.032552083333333336,0,0)" xlink:href="#N"/><use transform="matrix(0.032552083333333336,0,0,0.032552083333333336,43.196614583333336,0)" xlink:href="#O"/><use transform="matrix(0.032552083333333336,0,0,0.032552083333333336,61.263020833333336,0)" xlink:href="#M"/><use transform="matrix(0.032552083333333336,0,0,0.032552083333333336,98.828125,0)" xlink:href="#P"/><use transform="matrix(0.032552083333333336,0,0,0.032552083333333336,137.76041666666669,0)" xlink:href="#H"/><use transform="matrix(0.032552083333333336,0,0,0.032552083333333336,177.47395833333337,0)" xlink:href="#I"/></g><path d="M653-1490V0H466v-1314h-10L96-1047v-204l324-239h233" id="Q"/><use transform="matrix(0.0390625,0,0,0.0390625,0,0)" xlink:href="#Q" id="e"/><path d="M441-652l13-317-268 171-72-126 282-146-282-146 72-128 268 171-13-317h144l-12 317 267-171 72 128-282 146 282 146-72 126-267-171 12 317H441" id="R"/><use transform="matrix(0.0390625,0,0,0.0390625,0,0)" xlink:href="#R" id="f"/><path d="M135 0v-1490h581c339 0 533 192 533 485 0 204-94 351-264 424L1302 0H964L680-532H440V0H135zm305-779h220c186 0 274-77 274-226 0-150-88-233-275-233H440v459" id="S"/><path d="M513 14c-232 0-385-159-385-421v-711h300v659c0 139 76 222 202 222 127 0 217-86 217-234v-647h301V0H864l-4-232C797-74 683 14 513 14" id="T"/><path d="M537 19C279 19 81-185 81-557c0-382 206-575 454-575 190 0 278 113 318 202h10v-560h300V0H868v-179h-15C812-89 719 19 537 19zm92-241c153 0 240-134 240-336 0-203-86-334-240-334-158 0-240 138-240 334 0 197 84 336 240 336" id="U"/><g id="g"><use transform="matrix(0.032552083333333336,0,0,0.032552083333333336,0,0)" xlink:href="#S"/><use transform="matrix(0.032552083333333336,0,0,0.032552083333333336,42.96875,0)" xlink:href="#z"/><use transform="matrix(0.032552083333333336,0,0,0.032552083333333336,83.85416666666667,0)" xlink:href="#T"/><use transform="matrix(0.032552083333333336,0,0,0.032552083333333336,125.35807291666667,0)" xlink:href="#E"/><use transform="matrix(0.032552083333333336,0,0,0.032552083333333336,166.86197916666669,0)" xlink:href="#U"/></g><path d="M135 0v-1490h980v253H440v416h609v249H440V0H135" id="V"/><path d="M1163 418H863v-597h-10C812-89 719 19 537 19 279 19 81-185 81-557c0-382 206-575 454-575 190 0 278 113 318 202h15v-188h295V418zM629-222c153 0 240-134 240-336 0-203-86-334-240-334-158 0-240 138-240 334 0 197 84 336 240 336" id="W"/><g id="h"><use transform="matrix(0.032552083333333336,0,0,0.032552083333333336,0,0)" xlink:href="#V"/><use transform="matrix(0.032552083333333336,0,0,0.032552083333333336,37.825520833333336,0)" xlink:href="#I"/><use transform="matrix(0.032552083333333336,0,0,0.032552083333333336,65.46223958333334,0)" xlink:href="#B"/><use transform="matrix(0.032552083333333336,0,0,0.032552083333333336,83.52864583333334,0)" xlink:href="#H"/><use transform="matrix(0.032552083333333336,0,0,0.032552083333333336,123.24218750000001,0)" xlink:href="#E"/><use transform="matrix(0.032552083333333336,0,0,0.032552083333333336,164.74609375,0)" xlink:href="#U"/><use transform="matrix(0.032552083333333336,0,0,0.032552083333333336,206.77083333333334,0)" xlink:href="#S"/><use transform="matrix(0.032552083333333336,0,0,0.032552083333333336,249.73958333333334,0)" xlink:href="#H"/><use transform="matrix(0.032552083333333336,0,0,0.032552083333333336,289.453125,0)" xlink:href="#W"/><use transform="matrix(0.032552083333333336,0,0,0.032552083333333336,331.4778645833333,0)" xlink:href="#T"/><use transform="matrix(0.032552083333333336,0,0,0.032552083333333336,372.9817708333333,0)" xlink:href="#H"/><use transform="matrix(0.032552083333333336,0,0,0.032552083333333336,412.69531250000006,0)" xlink:href="#F"/><use transform="matrix(0.032552083333333336,0,0,0.032552083333333336,450.0325520833333,0)" xlink:href="#K"/><use transform="matrix(0.032552083333333336,0,0,0.032552083333333336,474.609375,0)" xlink:href="#J"/><use transform="matrix(0.032552083333333336,0,0,0.032552083333333336,525.4231770833334,0)" xlink:href="#z"/><use transform="matrix(0.032552083333333336,0,0,0.032552083333333336,566.30859375,0)" xlink:href="#K"/><use transform="matrix(0.032552083333333336,0,0,0.032552083333333336,590.72265625,0)" xlink:href="#B"/><use transform="matrix(0.032552083333333336,0,0,0.032552083333333336,608.7890625,0)" xlink:href="#L"/><use transform="matrix(0.032552083333333336,0,0,0.032552083333333336,635.8723958333333,0)" xlink:href="#B"/><use transform="matrix(0.032552083333333336,0,0,0.032552083333333336,653.9388020833333,0)" xlink:href="#C"/><use transform="matrix(0.032552083333333336,0,0,0.032552083333333336,693.8151041666665,0)" xlink:href="#M"/><use transform="matrix(0.032552083333333336,0,0,0.032552083333333336,732.5195312499999,0)" xlink:href="#K"/><use transform="matrix(0.032552083333333336,0,0,0.032552083333333336,756.9335937499999,0)" xlink:href="#B"/><use transform="matrix(0.032552083333333336,0,0,0.032552083333333336,774.9999999999999,0)" xlink:href="#z"/><use transform="matrix(0.032552083333333336,0,0,0.032552083333333336,815.8854166666665,0)" xlink:href="#E"/></g><path d="M476-652l19-284-238 159-97-168 257-125-257-125 97-170 238 159-19-284h192l-18 284 238-159 95 170-255 125 255 125-95 168-238-159 18 284H476" id="X"/><use transform="matrix(0.0390625,0,0,0.0390625,0,0)" xlink:href="#X" id="i"/><path d="M749-1490V0H444v-1221h-10L93-980v-279l329-231h327" id="Y"/><use transform="matrix(0.0390625,0,0,0.0390625,0,0)" xlink:href="#Y" id="j"/><path d="M428-647V0H128v-1490h294v586c65-146 175-228 341-228 232 0 385 159 385 421V0H847v-659c0-139-76-222-202-222-128 0-217 86-217 234" id="Z"/><g id="k"><use transform="matrix(0.032552083333333336,0,0,0.032552083333333336,0,0)" xlink:href="#V"/><use transform="matrix(0.032552083333333336,0,0,0.032552083333333336,37.825520833333336,0)" xlink:href="#I"/><use transform="matrix(0.032552083333333336,0,0,0.032552083333333336,65.46223958333334,0)" xlink:href="#B"/><use transform="matrix(0.032552083333333336,0,0,0.032552083333333336,83.52864583333334,0)" xlink:href="#H"/><use transform="matrix(0.032552083333333336,0,0,0.032552083333333336,123.24218750000001,0)" xlink:href="#E"/><use transform="matrix(0.032552083333333336,0,0,0.032552083333333336,164.74609375,0)" xlink:href="#U"/><use transform="matrix(0.032552083333333336,0,0,0.032552083333333336,206.77083333333334,0)" xlink:href="#F"/><use transform="matrix(0.032552083333333336,0,0,0.032552083333333336,244.10807291666669,0)" xlink:href="#Z"/><use transform="matrix(0.032552083333333336,0,0,0.032552083333333336,285.6119791666667,0)" xlink:href="#B"/><use transform="matrix(0.032552083333333336,0,0,0.032552083333333336,303.6783854166667,0)" xlink:href="#A"/></g><path d="M750 21c-371 0-615-218-615-544v-967h305v942c0 174 123 299 310 299s309-125 309-299v-942h306v967c0 326-247 544-615 544" id="aa"/><g id="l"><use transform="matrix(0.032552083333333336,0,0,0.032552083333333336,0,0)" xlink:href="#aa"/><use transform="matrix(0.032552083333333336,0,0,0.032552083333333336,48.79557291666667,0)" xlink:href="#F"/><use transform="matrix(0.032552083333333336,0,0,0.032552083333333336,86.1328125,0)" xlink:href="#H"/><use transform="matrix(0.032552083333333336,0,0,0.032552083333333336,125.84635416666667,0)" xlink:href="#I"/></g><path d="M128 0v-1118h278l12 217c60-163 185-234 319-234 143 0 236 81 288 251 63-172 205-251 359-251 205 0 357 138 357 381V0h-301v-697c0-126-76-187-177-187-114 0-184 79-184 196V0H789v-705c0-109-72-179-174-179-106 0-187 74-187 208V0H128" id="ab"/><path d="M681 22C323 22 94-145 85-462h297c10 151 131 226 296 226 163 0 271-77 271-190 0-102-95-149-257-189l-164-41c-252-61-403-188-403-405 0-269 236-449 560-449 330 0 546 183 551 445H941c-11-119-106-188-259-188-156 0-244 72-244 172-3 156 226 185 373 221 250 61 445 186 445 436 0 271-213 446-575 446" id="ac"/><g id="m"><use transform="matrix(0.032552083333333336,0,0,0.032552083333333336,0,0)" xlink:href="#N"/><use transform="matrix(0.032552083333333336,0,0,0.032552083333333336,42.35026041666667,0)" xlink:href="#M"/><use transform="matrix(0.032552083333333336,0,0,0.032552083333333336,79.91536458333334,0)" xlink:href="#P"/><use transform="matrix(0.032552083333333336,0,0,0.032552083333333336,120.05208333333334,0)" xlink:href="#ab"/><use transform="matrix(0.032552083333333336,0,0,0.032552083333333336,180.89192708333334,0)" xlink:href="#H"/><use transform="matrix(0.032552083333333336,0,0,0.032552083333333336,220.60546875,0)" xlink:href="#E"/><use transform="matrix(0.032552083333333336,0,0,0.032552083333333336,262.109375,0)" xlink:href="#K"/><use transform="matrix(0.032552083333333336,0,0,0.032552083333333336,286.5234375,0)" xlink:href="#ac"/><use transform="matrix(0.032552083333333336,0,0,0.032552083333333336,330.17578125,0)" xlink:href="#H"/><use transform="matrix(0.032552083333333336,0,0,0.032552083333333336,369.8893229166667,0)" xlink:href="#F"/><use transform="matrix(0.032552083333333336,0,0,0.032552083333333336,407.22656250000006,0)" xlink:href="#F"/><use transform="matrix(0.032552083333333336,0,0,0.032552083333333336,444.5638020833333,0)" xlink:href="#B"/><use transform="matrix(0.032552083333333336,0,0,0.032552083333333336,462.6302083333333,0)" xlink:href="#z"/><use transform="matrix(0.032552083333333336,0,0,0.032552083333333336,503.515625,0)" xlink:href="#E"/></g><g id="n"><use transform="matrix(0.032552083333333336,0,0,0.032552083333333336,0,0)" xlink:href="#N"/><use transform="matrix(0.032552083333333336,0,0,0.032552083333333336,43.196614583333336,0)" xlink:href="#I"/><use transform="matrix(0.032552083333333336,0,0,0.032552083333333336,68.71744791666667,0)" xlink:href="#z"/><use transform="matrix(0.032552083333333336,0,0,0.032552083333333336,109.60286458333334,0)" xlink:href="#ab"/><use transform="matrix(0.032552083333333336,0,0,0.032552083333333336,170.44270833333334,0)" xlink:href="#A"/><use transform="matrix(0.032552083333333336,0,0,0.032552083333333336,212.46744791666669,0)" xlink:href="#K"/></g><path d="M795 20C377 20 94-272 94-743c0-483 302-767 694-767 335 0 593 206 635 500h-310c-42-142-154-229-320-229-230 0-389 177-389 493s154 495 393 495c212 0 340-120 345-311H818v-232h620v186c0 391-269 628-643 628" id="ad"/><g id="o"><use transform="matrix(0.032552083333333336,0,0,0.032552083333333336,0,0)" xlink:href="#ad"/><use transform="matrix(0.032552083333333336,0,0,0.032552083333333336,50.032552083333336,0)" xlink:href="#M"/><use transform="matrix(0.032552083333333336,0,0,0.032552083333333336,88.73697916666667,0)" xlink:href="#ab"/><use transform="matrix(0.032552083333333336,0,0,0.032552083333333336,149.57682291666669,0)" xlink:href="#H"/></g><path d="M657 26c-323 0-524-166-541-416h195c15 169 171 246 346 246 202 0 356-106 356-265 5-203-294-238-475-293-239-73-380-191-380-389 0-252 224-419 512-419 294 0 499 171 508 396H992c-17-145-151-228-328-228-193 0-321 102-321 242 0 156 175 211 284 241l149 41c160 44 422 134 422 412 0 244-197 432-541 432" id="ae"/><path d="M628 24c-324 0-524-230-524-574 0-343 198-582 503-582 237 0 487 146 487 559v75H286c9 234 145 362 343 362 132 0 231-58 273-172l174 48C1024-91 857 24 628 24zM287-650h624c-17-190-120-322-304-322-192 0-309 151-320 322" id="af"/><path d="M338-670V0H158v-1118h173l1 207c72-158 192-221 342-221 226 0 378 139 378 422V0H872v-695c0-172-96-275-252-275-161 0-282 109-282 300" id="ag"/><path d="M577 24c-279 0-473-224-473-580 0-354 195-576 474-576 218 0 287 134 324 193h14v-551h180V0H922v-173h-20C865-111 790 24 577 24zm27-161c203 0 314-172 314-421 0-247-108-413-314-413-212 0-317 181-317 413 0 235 108 421 317 421" id="ah"/><path d="M158 0v-1118h174v172h12c41-113 157-188 290-188 26 0 70 2 91 3v181c-11-2-60-10-108-10-161 0-279 109-279 260V0H158" id="ai"/><g id="p"><use transform="matrix(0.0390625,0,0,0.0390625,0,0)" xlink:href="#ae"/><use transform="matrix(0.0390625,0,0,0.0390625,51.328125,0)" xlink:href="#af"/><use transform="matrix(0.0390625,0,0,0.0390625,97.96875,0)" xlink:href="#ag"/><use transform="matrix(0.0390625,0,0,0.0390625,145.234375,0)" xlink:href="#ah"/><use transform="matrix(0.0390625,0,0,0.0390625,194.21875,0)" xlink:href="#af"/><use transform="matrix(0.0390625,0,0,0.0390625,240.859375,0)" xlink:href="#ai"/></g><use transform="matrix(0.0390625,0,0,0.0390625,0,0)" xlink:href="#Q" id="q"/><g id="t"><use transform="matrix(0.032552083333333336,0,0,0.032552083333333336,0,0)" xlink:href="#V"/><use transform="matrix(0.032552083333333336,0,0,0.032552083333333336,37.825520833333336,0)" xlink:href="#I"/><use transform="matrix(0.032552083333333336,0,0,0.032552083333333336,65.46223958333334,0)" xlink:href="#B"/><use transform="matrix(0.032552083333333336,0,0,0.032552083333333336,83.52864583333334,0)" xlink:href="#H"/><use transform="matrix(0.032552083333333336,0,0,0.032552083333333336,123.24218750000001,0)" xlink:href="#E"/><use transform="matrix(0.032552083333333336,0,0,0.032552083333333336,164.74609375,0)" xlink:href="#U"/><use transform="matrix(0.032552083333333336,0,0,0.032552083333333336,206.77083333333334,0)" xlink:href="#S"/><use transform="matrix(0.032552083333333336,0,0,0.032552083333333336,249.73958333333334,0)" xlink:href="#H"/><use transform="matrix(0.032552083333333336,0,0,0.032552083333333336,289.453125,0)" xlink:href="#W"/><use transform="matrix(0.032552083333333336,0,0,0.032552083333333336,331.4778645833333,0)" xlink:href="#T"/><use transform="matrix(0.032552083333333336,0,0,0.032552083333333336,372.9817708333333,0)" xlink:href="#H"/><use transform="matrix(0.032552083333333336,0,0,0.032552083333333336,412.69531250000006,0)" xlink:href="#F"/><use transform="matrix(0.032552083333333336,0,0,0.032552083333333336,450.0325520833333,0)" xlink:href="#K"/><use transform="matrix(0.032552083333333336,0,0,0.032552083333333336,474.4466145833333,0)" xlink:href="#D"/><use transform="matrix(0.032552083333333336,0,0,0.032552083333333336,522.6888020833333,0)" xlink:href="#C"/><use transform="matrix(0.032552083333333336,0,0,0.032552083333333336,561.9140624999999,0)" xlink:href="#C"/><use transform="matrix(0.032552083333333336,0,0,0.032552083333333336,601.1393229166665,0)" xlink:href="#H"/><use transform="matrix(0.032552083333333336,0,0,0.032552083333333336,640.8528645833331,0)" xlink:href="#A"/><use transform="matrix(0.032552083333333336,0,0,0.032552083333333336,682.8776041666665,0)" xlink:href="#K"/><use transform="matrix(0.032552083333333336,0,0,0.032552083333333336,706.6406249999999,0)" xlink:href="#H"/><use transform="matrix(0.032552083333333336,0,0,0.032552083333333336,746.3541666666665,0)" xlink:href="#U"/><use transform="matrix(0.032552083333333336,0,0,0.032552083333333336,788.3789062499999,0)" xlink:href="#J"/><use transform="matrix(0.032552083333333336,0,0,0.032552083333333336,839.1927083333333,0)" xlink:href="#z"/><use transform="matrix(0.032552083333333336,0,0,0.032552083333333336,880.078125,0)" xlink:href="#K"/><use transform="matrix(0.032552083333333336,0,0,0.032552083333333336,904.4921874999998,0)" xlink:href="#B"/><use transform="matrix(0.032552083333333336,0,0,0.032552083333333336,922.5585937499998,0)" xlink:href="#L"/><use transform="matrix(0.032552083333333336,0,0,0.032552083333333336,949.6419270833331,0)" xlink:href="#B"/><use transform="matrix(0.032552083333333336,0,0,0.032552083333333336,967.7083333333331,0)" xlink:href="#C"/><use transform="matrix(0.032552083333333336,0,0,0.032552083333333336,1007.5846354166664,0)" xlink:href="#M"/><use transform="matrix(0.032552083333333336,0,0,0.032552083333333336,1046.2890624999998,0)" xlink:href="#K"/><use transform="matrix(0.032552083333333336,0,0,0.032552083333333336,1070.7031249999998,0)" xlink:href="#B"/><use transform="matrix(0.032552083333333336,0,0,0.032552083333333336,1088.7695312499998,0)" xlink:href="#z"/><use transform="matrix(0.032552083333333336,0,0,0.032552083333333336,1129.6549479166665,0)" xlink:href="#E"/></g><path d="M65 0l393-574-370-544h210c88 136 192 297 267 435 67-142 176-302 264-435h206L661-564 1053 0H844c-94-144-206-310-287-458C484-308 366-142 273 0H65" id="aj"/><path d="M598-1118v154H368v674c0 100 37 144 132 144 23 0 62-6 92-12L629-6c-37 13-88 20-134 20-193 0-307-107-307-290v-688H20v-154h168v-266h180v266h230" id="ak"/><path d="M538 24C308 24 148-78 108-271l171-41c32 123 123 178 257 178 156 0 256-77 256-169 0-77-54-128-164-154l-186-44c-203-48-300-148-300-305 0-192 176-326 414-326 230 0 351 112 402 269l-163 42c-31-80-94-158-238-158-133 0-233 69-233 162 0 83 57 129 188 160l169 40c203 48 298 149 298 302 0 196-179 339-441 339" id="al"/><g id="u"><use transform="matrix(0.0390625,0,0,0.0390625,0,0)" xlink:href="#af"/><use transform="matrix(0.0390625,0,0,0.0390625,44.84375,0)" xlink:href="#aj"/><use transform="matrix(0.0390625,0,0,0.0390625,90.078125,0)" xlink:href="#ak"/><use transform="matrix(0.0390625,0,0,0.0390625,115.46875,0)" xlink:href="#af"/><use transform="matrix(0.0390625,0,0,0.0390625,162.109375,0)" xlink:href="#ag"/><use transform="matrix(0.0390625,0,0,0.0390625,209.375,0)" xlink:href="#ah"/><use transform="matrix(0.0390625,0,0,0.0390625,258.359375,0)" xlink:href="#al"/></g><use transform="matrix(0.0390625,0,0,0.0390625,0,0)" xlink:href="#Q" id="v"/><path d="M571 0L49-1490h339c138 427 271 775 384 1244 111-471 237-815 371-1244h337L970 0H571" id="am"/><g id="w"><use transform="matrix(0.032552083333333336,0,0,0.032552083333333336,0,0)" xlink:href="#am"/><use transform="matrix(0.032552083333333336,0,0,0.032552083333333336,45.70312500000001,0)" xlink:href="#z"/><use transform="matrix(0.032552083333333336,0,0,0.032552083333333336,86.58854166666669,0)" xlink:href="#K"/><use transform="matrix(0.032552083333333336,0,0,0.032552083333333336,110.35156250000001,0)" xlink:href="#H"/></g><use transform="matrix(0.0390625,0,0,0.0390625,0,0)" xlink:href="#Q" id="x"/></defs></g></svg>